<?xml version="1.0" encoding="UTF-8"?>
<svg id="Capa_1" xmlns="http://www.w3.org/2000/svg" viewBox="0 0 935.91 982.75">
  <defs>
    <style>
      .cls-1 {
        fill: #fff;
      }
    </style>
  </defs>
  <path class="cls-1" d="M308.52,327.23c-6.04-4.85-11.64-10.51-18.35-14.14-2.5-1.35-7.57,2.04-17.48,5.17-5.31-4.38-15.64-12.89-27.11-22.36-1.82,6.27-3.41,11.76-6.94,23.93-4.5-17.51-9.59-28.79-9.94-40.22-1.19-38.75-26.62-54.03-61.04-35.5-3.51,1.89-7.07,3.68-12.05,6.26,21.85-46.45,59.9-50.39,102.95-42.41.72-1.74,1.44-3.47,2.16-5.21-9.34-7.78-17.85-16.97-28.18-23.07-34.47-20.34-70.67-23.4-106.84-5.01-6.42,3.26-9.63,12.83-14.32,19.48,1.55,1.48,3.1,2.96,4.65,4.45-3.22-1.34-6.44-2.67-11.74-4.87.94,5.93,1.69,10.61,2.43,15.3-1.26.45-2.52.89-3.79,1.34-8.63-17.75-18.34-35.11-24.92-53.58-1.22-3.42,9.28-14.49,16.03-16.53,13.77-4.16,31.66,5.56,41.28-13.59.96-1.9,9.71,1.06,14.33-.16,8.66-2.28,16.86-6.22,25.4-9.04,15.79-5.22,31.69-10.13,48.53-15.48,8.31-27.15,20.22-35.85,48.1-28.17,41.2,11.34,71.67-.44,93.86-36.44,4.01-6.51,10.08-11.75,17.74-20.47-4.14,17.91-7.38,31.89-10.61,45.87,2.11,1.19,4.22,2.39,6.33,3.58,16.05-14.24,30.65-30.76,48.55-42.09,18.28-11.58,39.79-18.07,61.2-24.27-28.06,14.02-54.01,28.96-66,67.08,11.85-4.61,18.1-7.04,27.33-10.63-4.92,6.62-8.32,11.21-13.07,17.61,22.33-.99,41.87-1.86,61.4-2.73.35,1.74.69,3.48,1.04,5.21-31.83,1.31-63.32,3.36-87.01,38.18,39.82-.64,76.31-9.43,102.52,11.39-15.82,0-35.88-1.54-55.56.48-16.43,1.69-31.28,9.79-31.28,29.48,0,19.83,16.61,20.43,30.69,23.18,4.8.94,9.52,2.24,13.7,3.24-12.13,3.81-25.88,5.38-36.11,12.21-8.08,5.39-16.34,17.19-16.48,26.27-.23,15.17,14.35,12.06,24.93,11.86,2.12-.04,4.25.33,5.97.47-6.92,6.58-17.94,12.27-19.85,20.16-2.16,8.9,3.87,19.79,6.55,30.66-12.99,2.7-20.3,8.04-5.61,23.3,6.58,6.83,8.18,18.45,7.72,29.8-3.21-5.37-5.28-12.38-9.96-15.67-4.94-3.47-12.38-3.4-18.72-4.88.86,6.1.69,12.58,2.8,18.21,3.8,10.11,8.97,19.7,10.63,30.59-5.52-4.68-10.38-11.11-16.75-13.53-5.7-2.16-13.08.11-19.72.42,1.79,5.44,2.95,11.19,5.52,16.23,3.78,7.41,8.56,14.31,12.92,21.43-1.56,1.17-3.12,2.34-4.68,3.51-3.32-2.12-6.52-5.77-9.99-6.05-9.05-.72-18.21.03-27.33.2,4.72,6.67,9.28,13.46,14.2,19.98,4.3,5.71,8.99,11.13,14.01,17.28-4.39,2.07-5.81,3.37-6.74,3.08-16.51-5.04-31.86-6.24-39.14,13.8-5.9,16.24,3.53,32.81,22.98,40.6,28.18,11.29,53.48.74,74.58-15.71,49.38-38.52,84.73-85.85,80.66-154.63,17.4,12.48,25.26.51,32.67-11.16,6.88-10.83,12.94-22.19,20.33-34.98,8.65,18.75,19.17,14.9,28.54,4.28,11.72-13.28,22.18-27.67,35.09-39.66,12.51,27.29,20.17,30.16,44.22,20.4,23.45-9.52,47.12-18.51,73.41-28.8-.65,7.77-.3,9.26-.9,9.98-7.66,9.21-15.45,18.31-23.2,27.44,12.5,4.9,24.7,12.72,37.58,14.08,23.35,2.46,47.14.47,70.67,1.67,7.27.37,14.32,5.07,21.27,9.07-16.18,1.18-35.08-4.13-40.23,18.25-3.26,14.16,14.62,31.46,35.79,37.48,13.86,3.94,27.41,8.96,42.57,13.98-12.85,4.18-21.96,7.15-31.07,10.11,3.66,10.15,6.05,21.02,11.32,30.24,5.88,10.3,14.37,19.1,22.18,29.14-9.85,0-22.35-2.3-23.58.45-3.09,6.89-2.08,16.22-.85,24.29,1.45,9.57,4.85,18.85,7.92,30.16q-25.28-9.28-39.75,43.24c-18.38-11.44-23.74.61-29.19,15.51-11.53,31.5-38.54,48.68-63.87,67.82-21.57,16.3-44,32.9-61.01,53.51-29.63,35.91-29.78,76.41-12.34,119.6,12.47,30.89,22.54,63.76,26.92,96.65,5.39,40.44-9.84,75.27-47.94,95.74-38.56,20.72-74.85,10.27-106.57-14.25-16.51-12.76-27.61-32.41-41.63-48.54-5.15-5.93-11.65-10.68-17.53-15.97-5.31,6.96-13.35,13.21-15.39,21.02-5.62,21.51-15.06,38.66-38.91,46.83,2.94-5.7,7.53-10.46,7.24-14.9-.55-8.26-3.93-16.34-6.14-24.49-7.54,2.11-16.88,2.12-22.3,6.72-19.46,16.54-37.59,34.65-59.05,54.82,5.61-19.01,9.97-33.78,15.23-51.62-9.62.69-14.73-.51-17.43,1.5-17.22,12.82-34.02,15.8-55.97,9.49-20.72-5.96-22.99,16.42-31.41,34.12-1.44-23.17-9.48-43.84,20.03-52.1-11.63-18.19-27.69-22.19-45.5-19.81-29.36,3.93-47.79,21.03-55.49,49.91-4.99-35.34,15.11-55.58,42.99-70.36-20.91-36.96-63.47-38.66-115.4-5.87,11.94-31.53,40.41-49.04,95.71-58.92-17.39-28.89-32.19-59.96-53.33-85.84-10.43-12.76-32.59-15.95-45.63-21.76,31.3-15.02,69.17-9.42,98.82,18.85,10.39,9.91,19.12,21.72,30.26,30.61,7.58,6.05,18.02,8.51,29.42,13.58v-93.88c1.27-1.18,2.55-2.36,3.82-3.53,9.14,14.02,17.86,28.32,27.52,41.97,9.32,13.17,18.73,26.51,29.97,37.95,3.71,3.78,15.52,4.82,19.41,1.77,3.95-3.1,3.9-12.91,3.43-19.62-.76-10.86-3.3-21.59-.41-33.75,18.45,21.29,36.9,42.59,56,64.64,10.36-10.95,23.35-24.69,36.34-38.42,1.76.49,3.52.97,5.27,1.46-8.51,23.16-17.02,46.31-27.54,74.95,22.88-12.63,39.29-21.69,55.69-30.75,1.18,1.05,2.35,2.1,3.53,3.16-6.28,9.91-13.58,19.35-18.43,29.92-2.56,5.58-3.44,15.03-.33,19.2,2.85,3.82,12.04,3.27,18.51,3.88,3.73.35,7.6-1.13,11.41-1.23,8.46-.21,16.93-.07,31.52-.07.49,3.76,2.72,13.31,2.78,22.87.21,32.74,16.6,57.32,46.33,67.99,23.26,8.35,48.55,1.81,64.68-16.72,14.17-16.29,16.95-41.74,5.18-62.6-14.48-25.65-33.6-44.62-66.66-42.5-4.35.28-11.54-6.31-13.36-11.22-5.19-14.04-9.49-28.67-11.87-43.42-2.42-15-2.14-30.44-3.41-51.97-13.13,6.43-22.72,11.13-35.33,17.31,4.43-12.87,8.78-25.47,13.15-38.15-19.36-8.3-31.54-.92-42.24,27.52-5.99-11.88-5.15-50.11,5.89-58.26,9.48-7,24.79-7.27,37.68-8.13,9.03-.6,18.56,4.82,27.44,3.81,7.28-.82,13.95-7.15,20.88-11.03-5.11-5.74-9.19-14.33-15.55-16.63-13.34-4.82-30.97-2.24-41.31-10.02-24.73-18.62-42.93-6.28-66.28,3.01-68.78,27.37-133.76,14.56-193.26-28.37-4.58-3.3-8.79-7.11-13.05-10.58-16.43,14.43-16.99,23.03-5.71,49.23-10.02-9.09-20.03-18.17-34.08-30.92v37.16c-8.54-5.61-15.72-10.31-24.35-15.98-2.39,3.67-4.77,7.32-8.45,12.97-16.55-59.69-49.47-105.89-103.8-139.58-9.61,18.18,9.05,47.33-20.27,55.22-6.6,1.78-14.56-1.49-23.97-2.71,10.22-7.46,21.74-11.57,23.8-18.5,2.39-8.04-3.41-18.58-5.82-27.99-3.19-12.43-6.71-24.77-9.77-37.23-6.12-24.9-19.63-29.31-38.37-12.39,2.42-21.31,22.22-40.59,42.39-40.39,15.87.16,31.79.66,47.56,2.3,15.68,1.63,14.22,11.36,7.93,21.56-2.99,4.84-7.47,8.74-10.81,13.39-13.22,18.4-8.02,32.3,13.56,38.86,22.82,6.93,45.38,14.71,70.77,23.01,1.2-6.16,3.04-16.17,5.12-26.13,5.27-25.2,14.36-32.02,39.17-33.45,5.94-.34,15.19-6.17,16.65-11.26,10.25-35.86,30.69-62.65,63.81-80.22,5.06-2.68,7.91-9.51,11.8-14.4,9.22-5.04,19.63-8.74,27.29-15.54,7.92-7.04,6.4-15.17-4.88-19.36-16.46-6.12-32.84-12.44-49.25-18.68-1.72,1.39-3.44,2.79-5.16,4.18,5.47,7.2,9.47,17.16,16.73,21.01,12.77,6.77,17.9,15.29,15.85,28.99ZM328.73,263.43c2.46,1.38,5.24,4.3,7.32,3.86,7.31-1.52,14.37-4.2,21.53-6.44-4.81-5.05-8.83-11.47-14.62-14.8-6.99-4.02-15.48-5.42-29.74-10.02,7.1,12.32,11.66,20.25,16.23,28.19-12.4-3.22-24.8-6.43-38.65-10.02,2.83,18.34,13.39,25.74,28.09,25.38,3.42-.08,6.58-10.49,9.86-16.15ZM622.23,569.32c14.02,1.21,24.43,5.43,28.91,1.98,37.63-29,65.43-64.76,66.9-114.77.84-28.7-14.59-52.17-36.93-60.26-21.88-7.92-50.85.19-68.32,20.3-6.49,7.47-11.15,16.59-16.26,25.19-14.26,23.98-27.78,48.41-42.59,72.05-15.51,24.76-3.85,62.22,22.88,73.58,6.38,2.71,10.61,10.15,16.43,14.65,4.66,3.6,10.21,6.04,15.37,9,2.4-4.84,5.53-9.47,7.04-14.58,2.86-9.63,4.78-19.54,6.57-27.13Z"/>
</svg>