<?xml version="1.0" encoding="UTF-8"?>
<svg id="Capa_1" xmlns="http://www.w3.org/2000/svg" viewBox="0 0 936.28 953.67">
  <defs>
    <style>
      .cls-1 {
        fill: #fff;
      }
    </style>
  </defs>
  <path class="cls-1" d="M936.28,5.38c-47.64,96.32-97.78,189.02-164.48,271.66-61.13,75.75-132.42,139.56-219.99,183.52-22.62,11.36-46.49,20.21-70.39,30.47,11.51,3.71,23.23,7.22,34.77,11.24,80.77,28.11,151.18,72.69,211.94,132.83,70.47,69.74,120.36,153.19,161.95,242.18,10.53,22.53,20.2,45.46,30.22,68.23,1.02,2.33,1.8,4.76,3.01,8.02-13.71,0-26.56,0-39.4,0-68.76-.01-137.52-.15-206.28.15-6.58.03-9.11-2.25-11.27-7.92-22.18-58.19-48.92-114.18-84.18-165.65-74.57-108.85-175.11-182.98-300.92-222.7-47.58-15.02-96.27-25.09-146.06-28.38-41.85-2.76-83.81-3.75-125.72-5.49-2.88-.12-5.78-.02-9.26-.02v-38.86c13.56-1.06,27.19-2.18,40.83-3.19,141.94-10.57,271.99-54.24,387.03-139.39,63.19-46.78,115.32-104.14,159.54-168.87,33.98-49.74,62.31-102.61,85.87-158.01,3.21-7.55,7.27-10.04,15.54-10,79.04.34,158.09.19,237.14.18,2.88,0,5.76,0,10.11,0Z"/>
  <path class="cls-1" d="M.43.27c68.46-1.77,134.64,4.37,195.17,39.26,76.23,43.94,122.94,109.35,142.48,194.7,7.39,32.26,8.63,65.07,8.21,97.96-.05,3.66-4.01,8.11-7.3,10.77-41.48,33.44-88.98,54.59-140.28,67.81-8.4,2.16-16.87,4.03-26.28,6.26,0-16.85.49-32.38-.11-47.87-.98-24.87.26-50.32-4.67-74.45-11.78-57.69-55.36-96.93-113.94-105.93-17.32-2.66-34.94-3.43-53.29-5.15V.27Z"/>
  <path class="cls-1" d="M.2,653.1v-92.2c14.54,0,28.58-.76,42.51.14,48.58,3.14,96.68,10.07,143.2,24.6,140.53,43.89,243.61,132.23,307.97,264.53,14.61,30.03,24.03,62.59,35.75,94.02.99,2.66,1.3,5.58,2.05,8.93h-174.6C318.98,756.93,198.58,658.98.2,653.1Z"/>
  <path class="cls-1" d="M0,952.87v-256.18c58.83-.6,111.98,14.35,157.19,52.58,63.38,53.59,77.4,124.71,70.51,203.61H0Z"/>
</svg>